#tb 0: 100/2997
#media_type 0: video
#codec_id 0: rawvideo
#dimensions 0: 480x256
#sar 0: 0/1
0,          0,          0,        1,   368640, 0x26f74db2
0,          1,          1,        1,   368640, 0x63b29ea4
0,          2,          2,        1,   368640, 0x19467f03
0,          3,          3,        1,   368640, 0x5fdc3575
